<?xml version="1.0" encoding="UTF-8"?>
<svg width="89px" height="48px" viewBox="0 0 89 48" version="1.1" xmlns="http://www.w3.org/2000/svg" xmlns:xlink="http://www.w3.org/1999/xlink">
    <!-- Generator: Sketch 49.1 (51147) - http://www.bohemiancoding.com/sketch -->
    <title>Shape</title>
    <desc>Created with Sketch.</desc>
    <defs></defs>
    <g id="Page-1" stroke="none" stroke-width="1" fill="none" fill-rule="evenodd">
        <g id="noun_654459_cc" transform="translate(0.000000, -1.000000)" fill="#FFFFFF" fill-rule="nonzero">
            <g id="Group" transform="translate(0.000000, 0.637820)">
                <path d="M62.90625,0.33093 C62.0877874,0.360384887 61.3699716,0.885816396 61.0945146,1.65709593 C60.8190576,2.42837545 61.0416191,3.289656 61.65625,3.83093 L81.84375,22.36218 L3,22.36218 L2.8125,22.36218 C1.7651593,22.41118 0.8571564,23.40853 0.90625,24.45593 C0.955344,25.50323 1.9526789,26.41148 3,26.36218 L81.84375,26.36218 L61.65625,44.86218 C61.1223371,45.3413437 60.8855772,46.0695341 61.0356037,46.7710701 C61.1856302,47.4726062 61.6995137,48.0402682 62.3827064,48.2591487 C63.065899,48.4780291 63.8139845,48.3146751 64.34375,47.83093 L88.34375,25.83093 C88.7636384,25.4516881 89.003267,24.9123559 89.003267,24.346555 C89.003267,23.7807541 88.7636384,23.2414219 88.34375,22.86218 L64.34375,0.86218 C63.9541158,0.501274238 63.4369437,0.310145416 62.90625,0.33093 Z" id="Shape"></path>
            </g>
        </g>
    </g>
</svg>